<svg xmlns="http://www.w3.org/2000/svg" version="1.1" xmlns:xlink="http://www.w3.org/1999/xlink"  x="0" y="0" viewBox="0 0 512 512" style="enable-background:new 0 0 512 512" xml:space="preserve" class=""><g><g xmlns="http://www.w3.org/2000/svg"><g><circle cx="98.897" cy="413.103" fill="#ffc269" r="98.897" data-original="#ffc269"/><path d="m98.897 314.205c-5.257 0-10.417.414-15.453 1.204 47.279 7.42 83.445 48.331 83.445 97.693s-36.166 90.274-83.445 97.693c5.036.791 10.196 1.205 15.453 1.205 54.62 0 98.897-44.278 98.897-98.897s-44.277-98.898-98.897-98.898z" fill="#ffa95f" data-original="#ffa95f"/><g fill="#fff"><path d="m141.272 392.148c-6.296-6.473-14.674-9.755-24.9-9.755-9.091 0-18.213 3.277-25.54 10.151v-3.288c0-4.267-3.459-7.726-7.726-7.726s-7.726 3.459-7.726 7.726v74.155c0 4.267 3.459 7.726 7.726 7.726s7.726-3.459 7.726-7.726v-27.796c0-22.944 10.025-37.769 25.54-37.769 5.979 0 10.501 1.66 13.823 5.076 5.399 5.551 8.038 16.244 7.632 30.924-.002.071-.003.142-.003.214v28.925c0 4.267 3.459 7.726 7.726 7.726s7.726-3.459 7.726-7.726v-28.82c.515-19.164-3.524-33.299-12.004-42.017z" fill="#ffffff" data-original="#ffffff"/><path d="m52.234 378.647c-4.267 0-7.726 3.459-7.726 7.726v77.038c0 4.267 3.459 7.726 7.726 7.726s7.726-3.459 7.726-7.726v-77.038c0-4.267-3.459-7.726-7.726-7.726z" fill="#ffffff" data-original="#ffffff"/><circle cx="52.2" cy="362.794" r="7.726" fill="#ffffff" data-original="#ffffff"/></g></g><circle cx="98.897" cy="98.897" fill="#a4ccff" r="98.897" data-original="#a4ccff"/><path d="m98.897 0c-5.257 0-10.417.414-15.452 1.204 47.279 7.42 83.445 48.331 83.445 97.693s-36.166 90.274-83.445 97.693c5.035.79 10.195 1.204 15.453 1.204 54.62 0 98.897-44.278 98.897-98.897s-44.278-98.897-98.898-98.897z" fill="#8bb3ea" data-original="#8bb3ea"/><path d="m105.213 47.863c1.851-1.495 6.161-1.451 8.497-.951 4.147.929 8.265-1.664 9.217-5.808.956-4.158-1.639-8.305-5.798-9.261-1.319-.303-13.125-2.769-21.524 3.917-3.348 2.666-7.34 7.779-7.34 17v19.773h-5.868c-4.267 0-7.726 3.459-7.726 7.726s3.459 7.726 7.726 7.726h5.868v70.933c0 4.267 3.459 7.726 7.726 7.726s7.726-3.459 7.726-7.726v-70.933h10.226c4.267 0 7.726-3.459 7.726-7.726s-3.459-7.726-7.726-7.726h-10.226v-19.774c.001-2.448.504-4.095 1.496-4.896z" fill="#ffffff" data-original="#ffffff"/><g><circle cx="413.103" cy="413.103" fill="#a4ccff" r="98.897" data-original="#a4ccff"/><path d="m413.103 314.205c-5.257 0-10.417.414-15.453 1.204 47.279 7.42 83.445 48.331 83.445 97.693s-36.166 90.274-83.445 97.693c5.035.79 10.195 1.204 15.453 1.204 54.62 0 98.897-44.278 98.897-98.897s-44.278-98.897-98.897-98.897z" fill="#8bb3ea" data-original="#8bb3ea"/><path d="m429.805 450.729h-21.61c-2.243 0-4.068-1.825-4.068-4.068v-38.884h25.678c4.268 0 7.726-3.459 7.726-7.726s-3.459-7.726-7.726-7.726h-25.678v-24.575c0-4.267-3.459-7.726-7.726-7.726s-7.726 3.459-7.726 7.726v78.911c0 10.764 8.758 19.521 19.521 19.521h21.61c4.268 0 7.726-3.459 7.726-7.726-.001-4.267-3.46-7.727-7.727-7.727z" fill="#ffffff" data-original="#ffffff"/></g><g><circle cx="413.103" cy="98.897" fill="#ff8086" r="98.897" data-original="#ff8086" class=""/><path d="m413.103 0c-5.257 0-10.417.414-15.453 1.204 47.279 7.42 83.445 48.331 83.445 97.693s-36.166 90.274-83.445 97.693c5.035.79 10.195 1.204 15.453 1.204 54.62 0 98.897-44.278 98.897-98.897s-44.278-98.897-98.897-98.897z" fill="#e5646e" data-original="#e5646e"/><path d="m451.159 119.171v-40.16c.001-.106.008-.211.008-.317s-.007-.211-.008-.317v-30.02c0-4.267-3.459-7.726-7.726-7.726-4.181 0-7.577 3.322-7.713 7.47-6.328-4.69-14.153-7.47-22.617-7.47-20.989 0-38.064 17.075-38.064 38.064s17.075 38.064 38.064 38.064c8.458 0 16.278-2.776 22.604-7.46v9.998c0 .103.002.206.006.308.002.056.125 5.874-2.102 11.49-2.735 6.9-7.53 10.259-15.091 10.571-13.978.581-20.346-4.473-21.506-5.513-4.012-4.501-8.587-2.599-9.495-2.154-3.281 1.609-4.986 5.301-4.087 8.843.301 1.184 1.127 2.546 2.446 3.949-.244-.21-.446-.414-.599-.597l.072.091c.436.557.932 1.039 1.473 1.442 5.055 4.66 15.355 9.436 29.634 9.436.884 0 1.786-.019 2.699-.056 13.613-.563 23.847-7.778 28.818-20.317 3.267-8.241 3.227-16.092 3.184-17.619zm-38.056-17.866c-12.468 0-22.612-10.143-22.612-22.611s10.144-22.611 22.612-22.611c12.361 0 22.433 9.972 22.604 22.294v.634c-.172 12.321-10.243 22.294-22.604 22.294z" fill="#ffffff" data-original="#ffffff"/></g><g><circle cx="256" cy="256" fill="#f7f6f7" r="142.989" data-original="#f7f6f7"/><path d="m256 113.011c-5.222 0-10.376.288-15.453.834 71.702 7.706 127.536 68.407 127.536 142.155s-55.834 134.449-127.536 142.155c5.077.545 10.231.833 15.453.833 78.971 0 142.989-64.019 142.989-142.989s-64.018-142.988-142.989-142.988z" fill="#edebed" data-original="#edebed"/><g><path d="m181.348 318.641c-1.943 8.65 2.232 17.48 9.99 21.771 19.166 10.6 41.205 16.638 64.656 16.638 23.456 0 45.499-6.038 64.668-16.64 7.759-4.291 11.933-13.121 9.99-21.772-7.674-34.16-38.174-59.683-74.651-59.683-36.48-.001-66.98 25.524-74.653 59.686z" fill="#b3e59f" data-original="#b3e59f"/><path d="m330.652 318.638c-7.674-34.16-38.174-59.683-74.651-59.683-5.296 0-10.46.553-15.453 1.577 29.394 6.031 52.638 28.905 59.199 58.106 1.943 8.65-2.231 17.48-9.99 21.772-14.895 8.238-31.532 13.705-49.214 15.74 5.071.584 10.224.9 15.452.9 23.456 0 45.499-6.039 64.667-16.64 7.758-4.292 11.933-13.122 9.99-21.772z" fill="#95d6a4" data-original="#95d6a4"/><g><path d="m296.844 209.36v19.367c0 22.557-18.286 40.843-40.843 40.843-22.557 0-40.843-18.286-40.843-40.843v-19.367l25.391-30.905h30.905z" fill="#f2ccbc" data-original="#f2ccbc"/><path d="m271.453 178.454h-30.905l25.391 15.453v34.82c0 17.087-10.497 31.715-25.391 37.809 4.768 1.951 9.983 3.034 15.453 3.034 22.557 0 40.843-18.286 40.843-40.843v-19.367z" fill="#ecad9a" data-original="#ecad9a"/><path d="m272.9 154.95h-33.799c-13.224 0-23.944 10.72-23.944 23.944v30.465l34.611-11.402c12.763-4.205 26.754-2.275 37.902 5.228l9.173 6.174v-30.465c.001-13.224-10.719-23.944-23.943-23.944z" fill="#655e68" data-original="#655e68"/><g><path d="m272.9 154.95h-30.905c13.224 0 23.944 10.72 23.944 23.944v16.97c7.674.453 15.193 2.92 21.732 7.321l9.173 6.174v-30.465c0-13.224-10.72-23.944-23.944-23.944z" fill="#544f57" data-original="#544f57"/></g></g></g></g></g></g></svg>