<svg xmlns="http://www.w3.org/2000/svg" version="1.1" xmlns:xlink="http://www.w3.org/1999/xlink"  x="0" y="0" viewBox="0 0 32 32" style="enable-background:new 0 0 512 512" xml:space="preserve" class=""><g><g xmlns="http://www.w3.org/2000/svg" id="open_file" data-name="open file"><path d="m30 13.12v13.88a3.0088 3.0088 0 0 1 -3 3h-22a3.0088 3.0088 0 0 1 -3-3v-13.88a3.0148 3.0148 0 0 1 1.42-2.56l3.11-1.65a.9924.9924 0 0 1 1.47.88v5.76l5.97 3.22 2.03 1.09 2.03-1.09 5.97-3.22v-5.76a.9924.9924 0 0 1 1.47-.88l3.05 1.62a3.0256 3.0256 0 0 1 1.48 2.59z" fill="#4294ff" data-original="#4294ff" class=""/><path d="m30 13.12v1.48l-13.53 7.28a.98.98 0 0 1 -.94 0l-13.53-7.28v-1.48a3.0148 3.0148 0 0 1 1.42-2.56l3.11-1.65a.9924.9924 0 0 1 1.47.88v5.76l8 4.31 8-4.31v-5.76a.9924.9924 0 0 1 1.47-.88l3.05 1.62a3.0256 3.0256 0 0 1 1.48 2.59z" fill="#376cfb" data-original="#376cfb" class=""/><path d="m25.79 30h-20.79a3.0088 3.0088 0 0 1 -3-3v-13.88a2.9889 2.9889 0 0 1 1.17-2.38c.88 6.5 5 17.56 22.62 19.26z" fill="#2965ed" data-original="#2965ed"/><path d="m30 26.48v.52a3.0088 3.0088 0 0 1 -3 3h-22a3.0088 3.0088 0 0 1 -3-3v-.52l10.92-7.65a1.0174 1.0174 0 0 1 1.05-.06l2.03 1.09 2.03-1.09a1.0174 1.0174 0 0 1 1.05.06z" fill="#376cfb" data-original="#376cfb" class=""/><path d="m4.48 15.93-2.48-1.33v-1.48a2.9889 2.9889 0 0 1 1.17-2.38 23.4866 23.4866 0 0 0 1.31 5.19z" fill="#2045ce" data-original="#2045ce"/><path d="m25.79 30h-20.79a3.0088 3.0088 0 0 1 -3-3v-.52l6.19-4.33c3.34 3.8 8.78 7 17.6 7.85z" fill="#2045ce" data-original="#2045ce"/><path d="m25 2h-18a1 1 0 0 0 -1 1v13.7469l9.5259 5.133a.9958.9958 0 0 0 .9482 0l9.5259-5.133v-13.7469a1 1 0 0 0 -1-1z" fill="#e6ecff" data-original="#e6ecff"/><path d="m19.46 20.27-2.99 1.61a.98.98 0 0 1 -.94 0l-9.53-5.13v-13.75a1.0029 1.0029 0 0 1 1-1h3.63c.47 5.73 2.53 13.63 8.83 18.27z" fill="#b7c6e2" data-original="#b7c6e2"/><g fill="#4294ff"><path d="m21 8h-10a1 1 0 0 1 0-2h10a1 1 0 0 1 0 2z" fill="#4294ff" data-original="#4294ff" class=""/><path d="m21 12h-10a1 1 0 0 1 0-2h10a1 1 0 0 1 0 2z" fill="#4294ff" data-original="#4294ff" class=""/><path d="m21 16h-10a1 1 0 0 1 0-2h10a1 1 0 0 1 0 2z" fill="#4294ff" data-original="#4294ff" class=""/></g><path d="m11.66 8h-.66a1 1 0 0 1 0-2h.19c.13.66.29 1.33.47 2z" fill="#2965ed" data-original="#2965ed"/><path d="m13.06 12h-2.06a1 1 0 0 1 0-2h1.28a19.666 19.666 0 0 0 .78 2z" fill="#2965ed" data-original="#2965ed"/><path d="m15.3 16h-4.3a1 1 0 0 1 0-2h3.04a22.2732 22.2732 0 0 0 1.26 2z" fill="#2965ed" data-original="#2965ed"/></g></g></svg>