<svg xmlns="http://www.w3.org/2000/svg" version="1.1" xmlns:xlink="http://www.w3.org/1999/xlink"  x="0" y="0" viewBox="0 0 50 50" style="enable-background:new 0 0 512 512" xml:space="preserve"><g><g xmlns="http://www.w3.org/2000/svg"><g><path d="m48.5150452 36.8691483-.0100098 3.6298828c0 .0898438-.0200195.1801758-.0499878.2402344-.0300293.0698242-.0700073.1196289-.1300049.1499023l-2.0900269 1.2197266c0-.0097656.0100098-.0200195.0100098-.0200195-.1099854.0800781-.2700195.0703125-.4400024-.0297852l-7.75-4.4702148-.0100098.800293c0 .1899414-.1300049.3901367-.3900146.5498047l-3.2099609 1.8598633c-.5300293.300293-1.3800049.300293-1.9000244 0l-3.4699688-2-6.5200195 3.7900391-3.4799805 4.9902344-3.6199951-.8603516-1.8699951 1.090332-4.5-2.6000977-5.8400273-1.3798828.9899902-1.4199219-2.7600098-1.590332 6.5400395-3.8100586 3.5-4.9897461 3.6199951.8500977 1.8699951-1.08008 4.4699707 2.58008 1.9700317.4697266v-.5c0-.199707.1300049-.3999023.3900146-.5498047l2.7099609-1.5703125v-1.2797871l-2.8699951-1.6499023c-.3499756.7700195-.8599854 1.3598633-1.5 1.7299805l-1.039978.6000977c.0499878-.0400391.1099854-.0898438.1599731-.1298828-1.289978.9794941-3.2000122.9697285-5.3299561-.2602539-1.8400269-1.0600586-3.5-2.8398438-4.75-4.8901367l-4.9900517 2.8798828-.8999634 1.8803711-3.5599976 2.0600605 1.1399535-2.3901386-1.1499633-1.050293 3.5599976-2.0595703.9099731.8198242 4.6700444-2.6899414c-1.2000122-2.1401367-1.9400024-4.5302734-1.9299927-6.6899414.0099487-2.2402344.8099976-3.8100576 2.0999756-4.5302725l1.1599731-.6796875c1.2700195-.7402344 3.0400391-.6401367 5 .4897461.1199951.0703125.2400513.1601563.3699951.2299805l.0300293-11.4697266c0-.3701172.1199951-.6303711.3200073-.7802734l.0200195-.0200195c.0299683-.0200195.0599976-.0297852.0899658-.0498047l2.0200195-1.2001954c.2299805-.1396484.5599976-.1201171.9199829.090332l26.2499981 15.159667c.710022.4101563 1.2800293 1.4101563 1.2800293 2.2402344l-.0400391 18.290041h.0300298z" fill="#e4e8f4" data-original="#e4e8f4"/><path d="m37.1655579 49.0004959 6.0999755-3.5449219.0012818-.4589843-.0012818-.0009766.0012818-.4545898-.0012818-.0009766.0012818-.4545899-.0012818-.0004882.0012818-.4550782-6.1398926-3.5449218-6.0999737 3.5449218-.0012817.4589844.0012817.0009766-.0012817.4545898.0012817.0009766-.0012817.4545898.0012817.0009766-.0012817.4545898z" fill="#e4e8f4" data-original="#e4e8f4"/><g><g><g><g><g><g enable-background="new"><g><path d="m38.0520706 37.5049324-.0053749.8807144c0 .1944542-.1297112.3944473-.3944817.5511742l-3.2042923 1.8640594c-.5295372.3028946-1.3833046.3028946-1.9074326 0l-8.6997166-5.0196419c-.2647686-.1567268-.3998566-.35672-.3998566-.5619888l.0054073-.8809776c0 .2055321.1296806.405262.3944492.5619888l8.6997166 5.0199089c.5295372.3026276 1.3833046.3026276 1.9074326 0l3.2097015-1.8640633c.2647707-.156723.3944475-.3567199.3944475-.5511741z" fill="#474b59" data-original="#474b59"/></g><g><path d="m37.6546135 36.9478912c.5278511.3047562.5305519.7987823.0028076 1.1054726l-3.2083092 1.8644676c-.5277443.3066902-1.3806381.3067436-1.9084892.0019875l-8.6973858-5.0214386c-.5278397-.3047485-.533989-.8007698-.0062447-1.10746l3.2083092-1.8644657c.5277443-.3066921 1.3840885-.3047504 1.9119282-.0000019z" fill="#5b5e71" data-original="#5b5e71"/></g></g></g><g><g enable-background="new"><g><path d="m35.1515083 32.1424751-.0018654 5.5209961-1.1943588.6940842.0018692-5.5209961z" fill="#bac1ce" data-original="#bac1ce"/></g><g><path d="m33.9571533 32.8365593-.0018692 5.5209961-7.4111919-4.2788544.0018692-5.5209961z" fill="#d4dae8" data-original="#d4dae8"/></g><g><path d="m35.1515083 32.1424751-1.194355.6940842-7.4111919-4.2788544 1.1943569-.6940841z" fill="#e4e8f4" data-original="#e4e8f4"/></g></g></g></g><g><g><path d="m46.4138069 38.088253-.0102882 3.6285896c-.000267.0946884-.013176.1820793-.0450554.2435036-.0893059.1962204-.3049774.2463722-.5581169.1002235l-27.6374626-15.9564971c-.2468071-.1424942-.4614887-.4411125-.5493946-.7396469-.0314274-.097971-.0501499-.2036266-.0498829-.298317l.0102882-3.6285858z" fill="#e4e8f4" data-original="#e4e8f4"/></g><g><path d="m48.5116348 36.8724556-.009861 3.6280823c0 .0890541-.0198441.1785965-.0496101.2381287-.029705.0692101-.0693932.1185799-.1288643.1485863l-2.0914955 1.2192039c.0495491-.0300102.0991592-.0793762.1288643-.1485901.0297661-.0595322.0396309-.1485901.0396309-.2381287l.009922-3.6275978z" fill="#bac1ce" data-original="#bac1ce"/></g><g><path d="m45.415905 18.9087296-.0492134 17.3585891-26.7324467-15.4339847.0492134-17.3585904z" fill="#e4e8f4" data-original="#e4e8f4"/></g><g><path d="m48.5297623 18.5742702-.0496101 18.2981853-2.1014137 1.2196846.0594711-18.2986679c0-.822319-.5748749-1.823719-1.2885971-2.2399616l-26.2578412-15.1560435c-.3568306-.2081208-.7388-.1636624-.9766865-.0247538l2.1562595-1.283504c.2378864-.1389086.565012-.1190645.9218426.0890564l26.247921 15.1560431c.7137223.4162424 1.2886544 1.417158 1.2886544 2.2399614z" fill="#3f434f" data-original="#3f434f"/></g><g><path d="m45.178833 17.5550842c.7151451.4128876 1.2891579 1.4145317 1.2868309 2.2363663l-.0518723 18.296814-28.8399124-16.650732.0518703-18.296814c.0023308-.8218355.5864868-1.1548089 1.3016129-.7419305zm.1878548 18.7122345.0492096-17.3585815-26.7324524-15.4339903-.0492115 17.3585815z" fill="#525566" data-original="#525566"/></g></g></g><g><path d="m30.2538872 29.7620411c.5569916.321579.9961262 1.0916328.994339 1.7223606-.0018139.6400604-.4438477.892025-1.0008392.570446-.5486755-.3167782-.9961815-1.0823193-.9943676-1.7223778.001789-.6307296.4521922-.887207 1.0008678-.5704288z" fill="#bac1ce" data-original="#bac1ce"/></g></g><g><g><g><path d="m27.3402214 35.7606049-8.2693157 11.8138427-15.8276103-3.7431717 8.2695687-11.8139839z" fill="#cad0dd" data-original="#cad0dd"/></g><g><path d="m29.1132832 38.7831917-15.5302372 9.0251884-12.1128093-6.9933319 15.5302382-9.0251884z" fill="#e4e8f4" data-original="#e4e8f4"/></g><g><g enable-background="new"><g><path d="m8.5218639 41.2022133.0001946.1330376.0002193.1924705-.0942297.0003815-.0018215-.1954041-.0006904-.0745086-.0354882.0008468-.8678679.0197182-.1507201.0035248-.0006552-.015667-.0032964-.0771561-.0193963-.433937-.00317-.0730515-.0012121-.027523-.003748-.0817528-.0178656-.4070854-.0034271-.072918-.8101038-.0000038-.2299395-.0001106-.8101173.0000038-.1566696.0000916-.0003433-.0907441-.0027866-.474514-.0001889-.026638.087504.0026436.0004215.0267715.0067816.4719239.0004673.0371742.0644369.0000153.8101167-.0000039.2208372.0000534.8194637-.0000877.0919757.0000458.00317.0730629.0228629.5160904.0037475.0817489.0223221.5025292.0006686.0156593.1057939-.0026359.7321806-.0184746.1321955-.0032616z" fill="#ed435c" data-original="#ed435c"/></g><g><path d="m7.0376897 41.5350914-.0836187.0004463.0002995-.0269203.4164343-.2420044.0006552.015667.1507201-.0035248.4354043.2513809.4495373-.2612419-.0170737-.0098572.0354882-.0008468.0006904.0745086-.3392668.1971588-.2566065.0012131-.394156-.2275658z" fill="#cad0dd" data-original="#cad0dd"/></g><g><path d="m12.3991337 41.4848061-.1697569.0986518-5.301374-3.060749.1697564-.0986519z" fill="#cad0dd" data-original="#cad0dd"/></g><g><path d="m10.5321884 41.9126434-.1663408.0218964-.3327265.1953011-.1880617-.1084251-.1084661.0144806.2314567.1373824-.1880608.1084213.1518612-.0144806.1012707-.0579185.0723104.0434418.1157503-.0144806-.1229458-.0723991zm0 0-.1663408.0218964-.3327265.1953011-.1880617-.1084251-.1084661.0144806.2314567.1373824-.1880608.1084213.1518612-.0144806.1012707-.0579185.0723104.0434418.1157503-.0144806-.1229458-.0723991zm0 0-.1663408.0218964-.3327265.1953011-.1880617-.1084251-.1084661.0144806.2314567.1373824-.1880608.1084213.1518612-.0144806.1012707-.0579185.0723104.0434418.1157503-.0144806-.1229458-.0723991zm0 0-.1663408.0218964-.3327265.1953011-.1880617-.1084251-.1084661.0144806.2314567.1373824-.1880608.1084213.1518612-.0144806.1012707-.0579185.0723104.0434418.1157503-.0144806-.1229458-.0723991zm0 0-.1663408.0218964-.3327265.1953011-.1880617-.1084251-.1084661.0144806.2314567.1373824-.1880608.1084213.1518612-.0144806.1012707-.0579185.0723104.0434418.1157503-.0144806-.1229458-.0723991zm1.1210814-.043087-.0650711-.043438-.4556723-.2602844-.065115-.036377-.4556723-.2602844-.0650711-.043438-.4556723-.2602844-.065115-.036377-.4556723-.2602806-.065071-.0434416-.4556723-.2602806-.065115-.036377-.4484328-.2602844-.0650711-.0360222-.4556723-.2677002-.065115-.0360222-.4629121-.2677002-.0650711-.036377-.4484324-.2602844-.065115-.0360222-.5207433-.3037223-.5207877.3037224-.0650706.0360222-.4484324.2602844-.065115.043438-.4556727.2606392-.0578752.0360222-.4556724.2677001-.0650711.0360222-.4629123.2677002h.1301858l.3977976-.231678.4050813.231678h.1591015l-.0072398.0939407.419517.2387428-.419517.2458038-.0144801.0074158h.1157503l.376122-.2171974.3905573.2242584h.1301861l-.4556727-.2602806.4556727-.2677002.4556723.2677002-.4484324.2602806h.1229458l.3906016-.2242584.4050374.231678h.159101v.0939407l.4122772.238739-.0072398-.0798149-.3833175-.2239075.3688378-.2097816-.007196-.0723953-.4267569.2458-.4556727-.2602806.4484329-.2602844.4339967.2458038v-.079464l-.3616419-.2097778.3399224-.1953011v-.079464l-.4050374.2383881-.4050374-.2383881h-.2314562l-.4050369.2383881-.4050374-.2383881h-.1591016v-.0868797l-.4122772-.238739.4122772-.238739v-.0215454h.0867906v.0286064l.4122772.231678-.4050813.238739v.036026h.065115l.4050374-.2313271.4050369.2313271h.2169766l.4122772-.2387428.4122772.2387428h.0867906l.0072398.0723953.0144796-.0074158.4556727.2606392-.4484327.2602808.0071959.0868797.441237.2532196-.419517.2458038v.0144806h.1012702l.3833175-.2242622.3544025.2097816.1301851-.007061-.4194727-.2387428.4556723-.2606354.4556732.2606354-.4050379.2387428v.1299629l.3326826.1953011.1374254-.0074158-.448432-.2528687.448432-.2677002.4484329.2677002-.4411926.2528687h.0795507v.0289574l.4267569-.2458.4629126.2606353-.4556723.2602844-.4339972-.2532234-.0072403.079464.3761225.2171974-.3905582.2239075.1808214-.0289612.2748518-.1589241.1518612.0939445.10851-.0215454-.1953011-.1084213.4484329-.2677002.4556723.2602844h.0289602l.0216751.0505028.0217199-.0070648.448432.2602844.0289154-.0070648.0144806.0505028.0216751-.007061.4556723.2677002-.448432.2602806-.4556732-.2677002.4267578-.2532196-.1446657.0144806-.3471622.2023659-.2531757-.1444473-.1157064.0144806.3037672.1737595-.4556723.2602806-.4484329-.2602806.2386961-.1377373-.151906.0144806-.1519051.0868797-.1084661-.0649834-.1157503.0070648.1591454.0942955-.4556723.2602806-.4556723-.2602806.0361547-.0218964-.1446657.0144768v-.0579185l-.4122324-.238739.4122324-.2383881-.0071955-.1232529-.3761215-.2168465h-.1880612l-.426713.2458038-.419517-.2458038h-.1519056v-.0868797l-.3977971-.2313232.3977971-.2316742v-.043087h-.0506349l-.4122772.2383881-.426713-.2458038-.1880607-.0074197-.4267573.2461586-.4339528-.2461586-.1663408-.007061-.4339972.2532196-.4556725-.2602844.4556725-.2606354.4339972.2532196.0072398-.0723991-.376122-.2168427.3977976-.231678v-.043087h-.0578752l-.4050374.2387428-.4194729-.2461586h-.1157504v-.0505028l-.0506351.0289612-.5207434.3037224.5207434.2966576.065115.0360222.4556727.2677002.0650706.036026.4556723.2606354.0651155.0360222.4556723.2677002.0650706.0360222.4556727.2602844.065115.036377.4556723.2677002.0650711.0360222.4484324.2602805.065115.036377.4556727.2673492.0650706.0363731.4629126.2602844.0578752.043438.4556727.2602844.0650702.036377.5207872.3037224.5207434-.3037224.065115-.036377.4484329-.2602844.0650711-.043438.4556723-.2602844.0578747-.0363731.4556732-.2602844.065115-.0434418.448432-.2602806.0650711-.0360222.5207872-.3040771zm-5.2654848-1.7651252.4556723.2606392-.4484325.2602806-.4556723-.2602806zm-1.0270954 0 .4484768.2606392-.4556723.2677002-.4484329-.2677002zm-.0650706-.0360222-.4556727.2602844-.4556723-.2602844.4484324-.2677002zm-1.945636.6003837.4556725-.2677002.4556727.2677002-.4556727.2602806zm6.1695902 1.8371697.4484768.2602806-.4484768.2677002-.4556284-.2602806zm-.0650711.5640068-.4484329.2602806-.4556723-.2602806.4484329-.2602844zm-.9764595-.5640068.4556723.2677002-.4484329.2602806-.4556723-.2677002zm-.0650711-.0360222-.4484324.2602806-.4556727-.2677002.4484324-.2602806zm-.4556727-.868084.4556727.2677002-.4556727.2602844-.4556723-.2602844zm-.065115.5640068-.4484324.2602844-.4556723-.2602844.4484763-.2602844zm-.9764157-.5640068.4556723.2677002-.4484324.2602845-.4556723-.2602844zm-.0651149-.0360222-.4484324.2602844-.448433-.2602844.4484329-.2606354zm-.9691758-.5643615.4556723.2677002-.4484324.2602844-.4629126-.2602844zm-1.4899636.2677002.4484324-.2677002.4629126.2677002-.4556723.2602844zm.5207434.2966613.4556723-.2606354.4556727.2606354-.4556727.2673454zm.9692202.5640069-.4484329-.2602844.4556727-.2677002.4484324.2677002zm.0650706.0360221.4556727-.2602844.4556723.2602844-.4484324.2677002zm.5280275.3040772.4484325-.2677002.4556727.2602806-.4556727.2677002zm.5135036.2963028.4556723-.2602806.4556727.2602806-.4556727.2677002zm.5207872.3037262.4556727-.2673492.4556727.2673492-.4556727.2602806zm.5207434.2966575.4556723-.2602844.4556723.2602844-.4556723.2677002zm.9764595.5640068-.4556723-.2602844.4556723-.2677002.4556732.2677002zm.5207434-.2963066-.4556723-.2677002.4484329-.2602844.4556723.2602844zm.5135479-.3040771-.4556723-.2602806.4484329-.2673492.4629116.2673492zm.5135478-.2963066-.4556723-.2677002.448432-.2602806.4628687.2677002zm-4.1661233-4.129921.4556723.2602806-.4556723.2677002-.4556727-.2677002zm-.9692202.556942.4484324-.2606354.4556728.2676964-.4484324.2606392zm.97646.5640068-.4556723-.2602844.4484324-.2602844.4556723.2602844zm.0578308-.5569458.4556727-.2676964.4556723.2606354-.4556723.2677002zm.5207877.2966614.4556723-.2602844.4556727.2602844-.4556727.2677002zm.5207434.3037224.4556723-.2677002.4556723.2677002-.4556723.2602844zm.4629121.8606643-.4556723-.2602806.4484324-.2602844.4556723.2602844zm.0578751-.564003.4556723-.2606392.4484329.2606392-.4484329.2677002zm.5207434.3037224.4484329-.2677002.4629126.2677002-.4556732.2602806zm.5207872.2966576.4484329-.2606354.4556723.2606354-.4556723.2602844zm.513504.3037224.4556723-.2677002.4556723.2677002-.4556723.2602844zm.5207873.2966613.4556723-.2606354.4556723.2606354-.448432.2673454zm.5207434.3037224.4556723-.2677002.4556723.2677002-.4556723.2602844zm.9764595.5640068-.4556723-.2677002.4556723-.2602844.4556732.2602844zm-1.5550776-.3037223-.1880617-.1084251-.1084661.0144806.2314567.1373824-.1880608.1084213.1518612-.0144806.1012707-.0579185.0723104.0434418.1157503-.0144806-.1229458-.0723991.4339523-.2532196-.1663408.0218964zm.4990673-.2171975-.1663408.0218964-.3327265.1953011-.1880617-.1084251-.1084661.0144806.2314567.1373824-.1880608.1084213.1518612-.0144806.1012707-.0579185.0723104.0434418.1157503-.0144806-.1229458-.0723991zm0 0-.1663408.0218964-.3327265.1953011-.1880617-.1084251-.1084661.0144806.2314567.1373824-.1880608.1084213.1518612-.0144806.1012707-.0579185.0723104.0434418.1157503-.0144806-.1229458-.0723991zm0 0-.1663408.0218964-.3327265.1953011-.1880617-.1084251-.1084661.0144806.2314567.1373824-.1880608.1084213.1518612-.0144806.1012707-.0579185.0723104.0434418.1157503-.0144806-.1229458-.0723991zm0 0-.1663408.0218964-.3327265.1953011-.1880617-.1084251-.1084661.0144806.2314567.1373824-.1880608.1084213.1518612-.0144806.1012707-.0579185.0723104.0434418.1157503-.0144806-.1229458-.0723991z" fill="#cad0dd" data-original="#cad0dd"/></g><g><path d="m10.5092583 41.8608551.0233068.0506554-.1648226.0262413-.5202808.0831299-.108057.0172004-.6283388.1003342-.1650706.0263824.0042181-.0615806.0323067-.4946251.0018024-.0277939-.0833787.0003052-.37848.001503-.0938673.0003051-.377161.0013962-.188417.0007935-.8451424.0031318-.1556444.0006867.0010429-.0899429.0044532-.464283.0003938-.043026-.0545902-.0003738-.8408227-.006485-.185791-.001442-.8591452-.0063934-.1677212-.0013886.000844-.0205612.0035729-.0723343.0221806-.4468383.0021362-.0440369-.0545902-.0003777-.8281568-.0043602-.1114585-.0006256-.0048582-.0506706.1283714.0002937.805461.0019303.1570787.000431-.0029116.0885773-.016612.4898453.1179175.0063705.7682152.0058022.1305919.0009994.1280594.0009804.7955689.0060234.1585078.0012589-.0007939.0897979-.0047913.4805222-.0003047.0269279.0836239-.0004501.7926564-.0040245.2566114-.0012131.341094-.0017471.0942259-.0003891.3301449-.0017243.1367788-.0006179.0914354-.000557-.0018024.0277939-.0013962.0237045-.0044203.077034-.0260038.4420357.1907339-.0305977.4287672-.068779.1079397-.0172691.7061558-.1133652z" fill="#6eba6e" data-original="#6eba6e"/></g><g><path d="m8.9324064 42.1673393-.4091863-.2362442-.000372-.1302681.378088-.2197189.083375-.000309-.0018034.0277977-.4430609.2574768.4107514.2371483-.0042172.0615807.1650696-.0263863-.0497827.0289307.2695179.1556053-.110714.0104713-.2230187-.1287575-.308155.1790772-.1539974.0146026z" fill="#cad0dd" data-original="#cad0dd"/></g><g><path d="m11.0310793 42.1621323.0141964.0505943-.1431599.0136528-.5999431.0570335-.1184454.0112038-.3601799.0342789-.1540099.014595-.2603683.0247192-.1106491.0105057-.7186461.0683861-.1431598.0136528-.0003395-.0535355-.0047045-.4785118-.0009642-.1254158-.0021305-.2203827.0938692-.0003051.0004034.2182235.000372.1302681.0005865.4683495.0110941-.0010987.1539974-.0146026.5311737-.0503197.110714-.0104713.4467725-.0422402.1540232-.0145988.1742401-.0164757.1185236-.011158.77528-.0734558z" fill="#ed435c" data-original="#ed435c"/></g><g><path d="m18.6221981 43.9510765-.1697559.0986519-10.5519481-6.0921707.1697564-.0986519z" fill="#cad0dd" data-original="#cad0dd"/></g><g><path d="m18.135828 44.2337227-.1697559.0986519-10.5519481-6.0921669.1697564-.0986519z" fill="#cad0dd" data-original="#cad0dd"/></g><g><path d="m11.0234365 44.076458-.6879873.3998146-.0831232-.0479927.6879864-.3998146z" fill="#f9bb4a" data-original="#f9bb4a"/></g><g><path d="m11.970439 43.8417587-1.3625327.7918167-.0831241-.0479927 1.3625326-.7918167z" fill="#f9bb4a" data-original="#f9bb4a"/></g><g><path d="m13.8090754 43.4098854-2.6516371 1.5409622-.087739-.0506553 2.6516371-1.5409661z" fill="#f9bb4a" data-original="#f9bb4a"/></g><g><path d="m12.9583435 45.1935768-.6879873.3998146-.087739-.0506553.6879873-.3998147z" fill="#8facfc" data-original="#8facfc"/></g><g><path d="m13.9053459 44.9588776-1.3625326.7918167-.0877399-.0506554 1.3625335-.7918205z" fill="#8facfc" data-original="#8facfc"/></g><g><path d="m12.7309561 42.4699402-3.2041435 1.8587112 4.2818737 2.4735756 3.2041426-1.8587151zm1.0704908 4.1804237-4.0070219-2.3146477 2.9437714-1.7139168 4.0142164 2.3142967z" fill="#cad0dd" data-original="#cad0dd"/></g><g><path d="m13.1560364 43.4737511-2.2710543 1.3197937-.0877399-.0506554 2.2710542-1.3197937z" fill="#f9bb4a" data-original="#f9bb4a"/></g><g><path d="m13.3245974 44.0070686-1.894703 1.1010819-.0831193-.0479889 1.8947019-1.1010819z" fill="#f9bb4a" data-original="#f9bb4a"/></g><g><path d="m12.9869795 44.5189133-1.2846241.7465439-.0831242-.0479928 1.2846241-.7465438z" fill="#f9bb4a" data-original="#f9bb4a"/></g><g><path d="m15.0863276 44.5882072-2.2710543 1.3197937-.0831242-.0479927 2.2710543-1.3197937z" fill="#8facfc" data-original="#8facfc"/></g><g><path d="m15.7393675 44.5243378-2.6516371 1.540966-.0831242-.0479927 2.6516371-1.5409622z" fill="#8facfc" data-original="#8facfc"/></g><g><path d="m15.2595081 45.1241913-1.8947019 1.1010818-.08774-.0506591 1.8947029-1.1010781z" fill="#8facfc" data-original="#8facfc"/></g><g><path d="m14.9218864 45.6360321-1.2846241.7465439-.0877389-.0506592 1.2846241-.7465401z" fill="#8facfc" data-original="#8facfc"/></g></g></g></g><g><g><path d="m20.3543797 40.2967911c-.668848.3161697-1.4893551.5089455-2.3471107.5541496l-.0067997-1.2229042c.3012314-.0300064.5920925-.0962944.8566837-.1956711z" fill="#ddaf9b" data-original="#ddaf9b"/></g><g><path d="m21.9771862 38.5136566c-.0748062.5571785-.4618282 1.0842743-1.1043873 1.4999924l-1.4867916-.8583984c.2538261-.1837692.4242134-.4036598.4851646-.6385231z" fill="#ed435c" data-original="#ed435c"/></g><g><path d="m17.3026447 35.7607346.0069237 1.2167854c-1.164484.0723648-2.0557394.6386566-2.0516491 1.331295.0070734.3585052.2482376.6958008.68645.9488029.3756094.2168579.8598585.3524551 1.3801699.3824806l.0066433 1.2169495c-1.0816822-.0361938-2.0867577-.2982101-2.8588476-.7439766-.834692-.4819107-1.3010283-1.1234894-1.3048086-1.8042221-.0075293-1.3493919 1.8266849-2.4697151 4.1351184-2.5481147z" fill="#576cfb" data-original="#576cfb"/></g><g><path d="m21.2035465 36.8600693c.4441319.3704376.7063408.7921982.7712288 1.2440224l-2.1006718-.0000305c-.0370636-.1295509-.1001549-.2500229-.1892681-.361412z" fill="#75ca75" data-original="#75ca75"/></g><g><path d="m20.7492542 36.5378456-1.4770966.8583946-.0523224-.0360718c-.3390923-.1957779-.7712307-.3253937-1.2342758-.3705673l-.0067978-1.2229042c1.0245686.0572968 1.9827538.316349 2.7131081.738018z" fill="#f9bb4a" data-original="#f9bb4a"/></g></g></g><g><g><g><g><path d="m16.0049286 17.873579c2.5350685 1.4636211 4.593586 5.022831 4.58531 7.942152-.0082588 2.9131794-2.0802155 4.093811-4.615283 2.630188s-4.5935707-5.0289745-4.5853119-7.9421539c.0082769-2.919323 2.0802154-4.0938091 4.6152849-2.6301861zm-.0260048 9.1724549c1.8630695 1.0756454 3.3868618.2069588 3.392931-1.9337368.0060863-2.1471634-1.5078087-4.7693348-3.3708782-5.8449783-1.8685322-1.0787983-3.3923569-.2104549-3.3984432 1.9367085-.0060692 2.1406954 1.5078582 4.7632102 3.3763904 5.8420066" fill="#ed435c" data-original="#ed435c"/></g></g><g><path d="m16.0088787 16.4801617c3.2070827 1.8516121 5.804697 6.3508377 5.7942486 10.0358315-.0104294 3.6788692-2.6250401 5.1752968-5.8321238 3.3236847-3.2070837-1.8516102-5.804678-6.3573055-5.7942486-10.0361748.0104466-3.6849938 2.6250392-5.1749516 5.8321238-3.3233414zm-.0339231 11.9657573c2.5350676 1.463623 4.6070242.2829914 4.615283-2.630188.008276-2.9193211-2.0502415-6.4785309-4.58531-7.942152-2.5350695-1.463623-4.607008-.2891369-4.6152849 2.6301861-.0082589 2.9131794 2.0502424 6.4785309 4.5853119 7.9421539" fill="#e8f1fa" data-original="#e8f1fa"/></g><g><g><path d="m24.2210579 26.5194893c-.0085659 2.2078438-.7873058 3.7651176-2.0452023 4.500927l-1.206604.7019653c1.257946-.7358093 2.0366364-2.2935028 2.0452003-4.5097027.0171318-4.4583092-3.1233749-9.8922653-6.9998474-12.1343727-1.9510317-1.1294098-3.7223949-1.2321978-4.9974213-.4876137l1.2065535-.7019644c1.2750263-.7441664 3.0378237-.6417961 4.9974737.4880323 3.8764211 2.2421075 7.0169278 7.675644 6.9998475 12.1427289z" fill="#f76d8e" data-original="#f76d8e"/></g></g><g><g><path d="m16.0128479 15.0799341c3.8790989 2.2396002 7.0158577 7.672719 7.0032024 12.1363401-.0126362 4.4574776-3.169899 6.2567635-7.0489979 4.0171642-3.8845787-2.2427635-7.0158567-7.672739-7.0032196-12.1302166.0126544-4.463621 3.1644354-6.2660502 7.0490151-4.0232877zm-.0418444 14.7597437c3.2070837 1.8516121 5.8216944.3551846 5.8321238-3.3236847.0104485-3.6849937-2.5871658-8.1842194-5.7942486-10.0358315-3.2070847-1.8516102-5.8216772-.3616524-5.8321238 3.3233414-.0104293 3.6788693 2.5871649 8.1845646 5.7942486 10.0361748" fill="#ed435c" data-original="#ed435c"/></g></g><g><g><path d="m15.9970121 20.6610794c-1.1965208-.6908073-2.177659-.1314487-2.1815672 1.2432404-.0038853 1.3750153.9709091 3.0571671 2.1674299 3.7479763 1.1965208.6908073 2.172183.1347713 2.1760912-1.2402439.0038853-1.3746891-.9654331-3.0601635-2.1619539-3.7509728z" fill="#ed435c" data-original="#ed435c"/></g></g><g><path d="m16.0009766 19.2673187c1.8630695 1.0756435 3.3769646 3.6978149 3.3708782 5.8449783-.0060692 2.1406956-1.5298615 3.0093822-3.392931 1.9337368-1.8685322-1.0787964-3.3824596-3.7013111-3.3763905-5.8420067.0060864-2.1471633 1.5299111-3.0155067 3.3984433-1.9367084zm-.0181017 6.3849755c1.196517.6908092 2.1721926.1347637 2.1760893-1.2402592.0038986-1.3746796-.9654217-3.0601463-2.1619387-3.7509575-1.196517-.6908092-2.1776733-.1314487-2.1815701 1.2432308-.0038986 1.3750229.9709025 3.0571766 2.1674195 3.7479859" fill="#e8f1fa" data-original="#e8f1fa"/></g></g><g><g><path d="m5.3151579 27.6584702.9116387.8230419 9.4375896-5.4487953c.1781111-.1028328.3222446-.0141907.3228064.1838913.0005798.2045288-.1426172.4461441-.3207283.5489769l-9.4375896 5.4487934-.9039636 1.8841972-3.5623274 2.0567093 1.1442474-2.3867283-1.154-1.0533752z" fill="#363a44" data-original="#363a44"/></g></g></g><g><g><path d="m27.3763218 14.2484398-.0296173 10.4538479-1.7561722-1.0145455.0296192-10.4538479z" fill="#37617b" data-original="#37617b"/></g><g><path d="m30.8378086 18.5096188-.023222 8.1960735-1.7598743-1.0166836.023222-8.1960735z" fill="#5b5e71" data-original="#5b5e71"/></g><g><path d="m34.2935791 23.4800377-.0148087 5.226923-1.7561759-1.0145474.0148086-5.226923z" fill="#6eba6e" data-original="#6eba6e"/></g><g><path d="m37.7668457 22.2734089-.0238991 8.4348183-1.7561683-1.0145455.023899-8.4348163z" fill="#4562ef" data-original="#4562ef"/></g><g><path d="m41.2402267 21.0286503-.0330963 11.6808452-1.756176-1.0145473.0330964-11.6808453z" fill="#efac41" data-original="#efac41"/></g><g><path d="m44.7124863 20.1758614-.0411797 14.5348968-1.756176-1.0145454.0411835-14.5348988z" fill="#ed435c" data-original="#ed435c"/></g></g><g><g><g enable-background="new"><g><path d="m43.2668076 44.9965019-.0013009.4589615-6.0999755 3.5449181.0013008-.4589615z" fill="#e5a03c" data-original="#e5a03c"/></g><g><path d="m37.166832 48.54142-.0013008.4589615-6.1398545-3.5448456.0013008-.4589615z" fill="#efac41" data-original="#efac41"/></g><g><path d="m43.2668076 44.9965019-6.0999756 3.5449181-6.1398545-3.5448456 6.0999756-3.5449181z" fill="#f9bb4a" data-original="#f9bb4a"/></g></g></g><g><g enable-background="new"><g><path d="m43.2668076 44.5409737-.0013009.4589615-6.0999755 3.544918.0013008-.4589615z" fill="#e63044" data-original="#e63044"/></g><g><path d="m37.166832 48.0858917-.0013008.4589615-6.1398545-3.5448456.0013008-.4589615z" fill="#ed435c" data-original="#ed435c"/></g><g><path d="m43.2668076 44.5409737-6.0999756 3.544918-6.1398545-3.5448456 6.0999756-3.544918z" fill="#f25574" data-original="#f25574"/></g></g></g><g><g enable-background="new"><g><path d="m43.2668076 44.0854416-.0013009.4589653-6.0999755 3.5449181.0013008-.4589615z" fill="#65aa65" data-original="#65aa65"/></g><g><path d="m37.166832 47.6303635-.0013008.4589615-6.1398545-3.5448494.0013008-.4589615z" fill="#6eba6e" data-original="#6eba6e"/></g><g><path d="m43.2668076 44.0854416-6.0999756 3.5449219-6.1398545-3.5448494 6.0999756-3.5449181z" fill="#75ca75" data-original="#75ca75"/></g></g></g><g><g enable-background="new"><g><path d="m43.2668076 43.6299133-.0013009.4589615-6.0999755 3.5449181.0013008-.4589615z" fill="#3c5dd6" data-original="#3c5dd6"/></g><g><path d="m37.166832 47.1748314-.0013008.4589615-6.1398545-3.5448456.0013008-.4589615z" fill="#4562ef" data-original="#4562ef"/></g><g><path d="m43.2668076 43.6299133-6.0999756 3.5449181-6.1398545-3.5448456 6.0999756-3.5449181z" fill="#576cfb" data-original="#576cfb"/></g><g><g><path d="m38.4647789 41.6735001-.3708649.2155227-1.4213714-.8206329.370861-.215519z" fill="#3c5dd6" data-original="#3c5dd6"/></g><g><path d="m41.0997391 44.2758293-.3749314.2178841-1.4255638-.8230477.3749314-.217884z" fill="#3c5dd6" data-original="#3c5dd6"/></g><g enable-background="new"><g><path d="m37.5316353 42.215786-.3749314.217884-1.4213714-.8206291.3749275-.2178879z" fill="#3c5dd6" data-original="#3c5dd6"/></g><g><path d="m36.5944214 42.7604332-.3708611.2155189-1.4213752-.8206291.3708648-.2155227z" fill="#3c5dd6" data-original="#3c5dd6"/></g><g><path d="m39.3177834 43.2470169-.3749314.2178879-1.4255638-.8230515.3749313-.217884z" fill="#3c5dd6" data-original="#3c5dd6"/></g><g><path d="m35.6612778 43.3027153-.3749314.2178879-1.4213714-.820633.3749313-.217884z" fill="#3c5dd6" data-original="#3c5dd6"/></g><g><path d="m38.3805695 43.7916641-.3708611.2155228-1.4255638-.8230476.370861-.2155228z" fill="#3c5dd6" data-original="#3c5dd6"/></g><g><path d="m37.4474258 44.33395-.3749275.2178841-1.4255638-.8230476.3749275-.2178879z" fill="#3c5dd6" data-original="#3c5dd6"/></g></g><g><path d="m39.8274498 42.4602394-.3708649.215519-1.0020828-.5785523.3708611-.2155228z" fill="#3c5dd6" data-original="#3c5dd6"/></g><g><path d="m41.5590897 43.4600029-.3708611.2155228-.9517746-.5495072.3708649-.2155227z" fill="#3c5dd6" data-original="#3c5dd6"/></g><g><path d="m39.2293816 45.3627625-.3749314.217884-1.4255638-.8230476.3749313-.2178879z" fill="#3c5dd6" data-original="#3c5dd6"/></g><g><path d="m40.1625252 44.8204765-.3708611.2155228-1.4255638-.8230515.3708611-.2155189z" fill="#3c5dd6" data-original="#3c5dd6"/></g></g></g></g></g></g></g></g></g></svg>